<svg width="18" height="18" viewBox="0 0 18 18" fill="none" xmlns="http://www.w3.org/2000/svg">
<path d="M11.0592 10.406L10.7602 10.7573L11.0864 11.0836L11.3564 11.3536L11.5029 11.5H11.71H12.2929L16.7929 16L16 16.7929L11.5 12.2929V11.71V11.5029L11.3536 11.3564L11.0836 11.0864L10.7573 10.7602L10.406 11.0592C9.35225 11.9558 7.98592 12.5 6.5 12.5C4.9087 12.5 3.38258 11.8679 2.25736 10.7426C1.13214 9.61742 0.5 8.0913 0.5 6.5C0.5 4.9087 1.13214 3.38258 2.25736 2.25736C3.38258 1.13214 4.9087 0.5 6.5 0.5C8.0913 0.5 9.61742 1.13214 10.7426 2.25736C11.8679 3.38258 12.5 4.9087 12.5 6.5C12.5 7.98592 11.9558 9.35225 11.0592 10.406ZM6.5 1.5C3.72386 1.5 1.5 3.72386 1.5 6.5C1.5 9.27614 3.72386 11.5 6.5 11.5C9.27614 11.5 11.5 9.27614 11.5 6.5C11.5 3.72386 9.27614 1.5 6.5 1.5Z" fill="white" stroke="white"/>
</svg>
