<svg width="18" height="18" viewBox="0 0 18 18" fill="none" xmlns="http://www.w3.org/2000/svg">
<path d="M17.4007 0.613295C16.8807 0.0932946 16.0407 0.0932946 15.5207 0.613295L9.00069 7.11996L2.48069 0.599961C1.96069 0.079961 1.12069 0.079961 0.600693 0.599961C0.0806934 1.11996 0.0806934 1.95996 0.600693 2.47996L7.12069 8.99996L0.600693 15.52C0.0806934 16.04 0.0806934 16.88 0.600693 17.4C1.12069 17.92 1.96069 17.92 2.48069 17.4L9.00069 10.88L15.5207 17.4C16.0407 17.92 16.8807 17.92 17.4007 17.4C17.9207 16.88 17.9207 16.04 17.4007 15.52L10.8807 8.99996L17.4007 2.47996C17.9074 1.97329 17.9074 1.11996 17.4007 0.613295Z" fill="white"/>
</svg>
