<svg width="26" height="26" viewBox="0 0 26 26" fill="none" xmlns="http://www.w3.org/2000/svg">
<path d="M13 0.5C11.3585 0.5 9.73303 0.823322 8.21646 1.45151C6.69989 2.07969 5.3219 3.00043 4.16117 4.16117C1.81696 6.50537 0.5 9.68479 0.5 13C0.5 16.3152 1.81696 19.4946 4.16117 21.8388C5.3219 22.9996 6.69989 23.9203 8.21646 24.5485C9.73303 25.1767 11.3585 25.5 13 25.5C16.3152 25.5 19.4946 24.183 21.8388 21.8388C24.183 19.4946 25.5 16.3152 25.5 13C25.5 11.3585 25.1767 9.73303 24.5485 8.21646C23.9203 6.69989 22.9996 5.3219 21.8388 4.16117C20.6781 3.00043 19.3001 2.07969 17.7835 1.45151C16.267 0.823322 14.6415 0.5 13 0.5ZM6.8375 20.85C7.375 19.725 10.65 18.625 13 18.625C15.35 18.625 18.625 19.725 19.1625 20.85C17.4625 22.2 15.325 23 13 23C10.675 23 8.5375 22.2 6.8375 20.85ZM20.95 19.0375C19.1625 16.8625 14.825 16.125 13 16.125C11.175 16.125 6.8375 16.8625 5.05 19.0375C3.775 17.375 3 15.275 3 13C3 7.4875 7.4875 3 13 3C18.5125 3 23 7.4875 23 13C23 15.275 22.225 17.375 20.95 19.0375ZM13 5.5C10.575 5.5 8.625 7.45 8.625 9.875C8.625 12.3 10.575 14.25 13 14.25C15.425 14.25 17.375 12.3 17.375 9.875C17.375 7.45 15.425 5.5 13 5.5ZM13 11.75C12.5027 11.75 12.0258 11.5525 11.6742 11.2008C11.3225 10.8492 11.125 10.3723 11.125 9.875C11.125 9.37772 11.3225 8.90081 11.6742 8.54917C12.0258 8.19754 12.5027 8 13 8C13.4973 8 13.9742 8.19754 14.3258 8.54917C14.6775 8.90081 14.875 9.37772 14.875 9.875C14.875 10.3723 14.6775 10.8492 14.3258 11.2008C13.9742 11.5525 13.4973 11.75 13 11.75Z" fill="white"/>
</svg>
