<svg width="76" height="76" viewBox="0 0 76 76" fill="none" xmlns="http://www.w3.org/2000/svg">
<path d="M19.7689 48.2061C18.6076 47.0453 18.1703 47.6285 17.912 47.887C11.2247 54.5743 5.2879 70.7097 8.42645 69.1337C19.8521 63.3969 21.7558 65.1049 28.4428 58.4181C28.7014 58.1596 29.2958 57.7334 28.1007 56.5381L19.7689 48.2061Z" fill="#FFA8A8"/>
<path d="M55.8191 48.1166C55.516 47.1521 56.1509 46.6874 56.4181 46.399C71.1775 30.4643 80.5578 9.23435 73.6065 2.28262C66.6918 -4.63167 46.1166 5.02266 30.1863 19.6757C29.8711 19.9659 29.2499 20.5156 28.1387 20.2836L23.1754 19.1017C21.7974 18.774 19.8502 19.3249 18.8486 20.3265L0.636829 38.5381C-0.364824 39.5399 -0.0393891 40.5395 1.36009 40.7592L14.5321 42.8292C15.9316 43.0494 17.896 42.4097 18.8975 41.4078C18.8975 41.4078 19.5771 40.7264 20.2599 41.409C24.0272 45.1758 31.0278 52.1764 34.617 55.7658C35.3304 56.479 34.6471 57.1575 34.6471 57.1575C33.6452 58.1594 33.0058 60.1234 33.2259 61.5231L35.2957 74.6949C35.5156 76.0948 36.5152 76.4202 37.5169 75.4183L55.7289 57.2063C56.7303 56.2047 57.2814 54.258 56.9532 52.88L55.8191 48.1166ZM51.7417 24.5882C48.657 21.5036 48.657 16.5028 51.7417 13.4186C54.8261 10.334 59.8268 10.334 62.9117 13.4186C65.9959 16.5026 65.9959 21.5036 62.9117 24.588C59.8268 27.6727 54.8259 27.6727 51.7417 24.5882Z" fill="#FBC8FF"/>
</svg>
