<svg width="29" height="29" viewBox="0 0 29 29" fill="none" xmlns="http://www.w3.org/2000/svg">
<path d="M7.54342 18.3946C7.1003 17.9516 6.93342 18.1742 6.83486 18.2728C4.28314 20.8245 2.01777 26.9815 3.21537 26.3801C7.57514 24.1911 8.30157 24.8428 10.8532 22.2913C10.9518 22.1926 11.1787 22.03 10.7227 21.5739L7.54342 18.3946Z" fill="#FFA8A8"/>
<path d="M21.2995 18.3603C21.1838 17.9923 21.4261 17.8149 21.5281 17.7049C27.1599 11.6246 30.7393 3.52366 28.0868 0.871021C25.4483 -1.76732 17.5972 1.91656 11.5185 7.50784C11.3983 7.6186 11.1613 7.82835 10.7372 7.73981L8.84333 7.28885C8.31751 7.1638 7.57453 7.37399 7.19232 7.7562L0.243094 14.7053C-0.139116 15.0876 -0.0149369 15.4691 0.519076 15.5529L5.54523 16.3428C6.07924 16.4268 6.82885 16.1827 7.21097 15.8004C7.21097 15.8004 7.4703 15.5403 7.73086 15.8008C9.16837 17.2381 11.8397 19.9094 13.2092 21.2791C13.4814 21.5512 13.2207 21.8101 13.2207 21.8101C12.8384 22.1924 12.5944 22.9418 12.6784 23.4759L13.4682 28.502C13.5521 29.0362 13.9335 29.1604 14.3157 28.7781L21.2651 21.8288C21.6472 21.4466 21.8575 20.7037 21.7322 20.1779L21.2995 18.3603ZM19.7436 9.38237C18.5666 8.20533 18.5666 6.29716 19.7436 5.12029C20.9206 3.94325 22.8288 3.94325 24.0059 5.12029C25.1827 6.29707 25.1827 8.20533 24.0059 9.38229C22.8288 10.5593 20.9205 10.5593 19.7436 9.38237Z" fill="#FBC8FF"/>
</svg>
