<svg width="145" height="26" viewBox="0 0 145 26" fill="none" xmlns="http://www.w3.org/2000/svg">
<path d="M6.45672 2.78667H20.3663V0H6.45672C4.63654 0 3.11152 0.70889 1.88167 2.12667C0.627225 3.56889 0 5.31667 0 7.37C0 9.22778 0.627225 10.8411 1.88167 12.21C3.11152 13.6033 4.63654 14.3 6.45672 14.3H10.1463H13.9096C15.0165 14.3 16.0004 14.7644 16.8613 15.6933C17.673 16.6711 18.0788 17.7344 18.0788 18.8833C18.0788 20.2522 17.6791 21.3644 16.8797 22.22C16.0803 23.0756 15.0903 23.5033 13.9096 23.5033H0V25.7767H13.9096C15.7544 25.7767 17.2917 25.1411 18.5216 23.87C19.7514 22.5989 20.3663 20.9367 20.3663 18.8833C20.3663 17.0256 19.7514 15.4122 18.5216 14.0433C17.2671 12.6744 15.7298 11.99 13.9096 11.99H10.1463H6.45672C5.32525 11.99 4.35367 11.5011 3.54197 10.5233C2.70567 9.61889 2.28752 8.56778 2.28752 7.37C2.28752 6.00111 2.68722 4.895 3.48663 4.05167C4.28603 3.20833 5.27606 2.78667 6.45672 2.78667ZM44.8959 25.7767V23.4667H38.3285C35.2785 23.4667 32.7204 22.44 30.6543 20.3867C28.5881 18.3333 27.5551 15.7911 27.5551 12.76C27.5551 9.97333 28.5881 7.57778 30.6543 5.57333C32.7204 3.56889 35.2785 2.56667 38.3285 2.56667H44.8959V0.183334H38.3285C34.6144 0.183334 31.5029 1.40556 28.994 3.85C26.4851 6.27 25.2306 9.24 25.2306 12.76C25.2306 16.5 26.4851 19.5922 28.994 22.0367C31.4537 24.53 34.5652 25.7767 38.3285 25.7767H44.8959ZM61.0134 12.9067H63.7806C65.6499 12.9067 67.1995 12.2956 68.4294 11.0733C69.6592 9.85111 70.2742 8.31111 70.2742 6.45333C70.2742 4.81555 69.6592 3.34889 68.4294 2.05333C67.1257 0.70889 65.5761 0.0366675 63.7806 0.0366675H52.2323H49.9447V25.7767H52.2323V12.9067H58.2462L66.105 25.7767H68.8721L61.0134 12.9067ZM52.2323 10.6333V2.34667H63.7806C64.912 2.34667 65.9082 2.75 66.7691 3.55667C67.5808 4.36333 67.9866 5.32889 67.9866 6.45333C67.9866 7.62667 67.5808 8.61667 66.7691 9.42333C65.9082 10.23 64.912 10.6333 63.7806 10.6333H52.2323ZM77.8318 18.7367C77.8318 17.5633 78.25 16.5 79.0863 15.5467C79.9226 14.5444 80.9311 14.0433 82.1117 14.0433H82.5914H89.4908V11.77H82.5914H82.1117C80.8573 11.5256 79.8304 10.9878 79.031 10.1567C78.2315 9.32555 77.8318 8.33556 77.8318 7.18667C77.8318 5.74445 78.2561 4.60167 79.1047 3.75833C79.9533 2.915 81.1155 2.49333 82.5914 2.49333H95.1358V0.183334H82.5914C80.6974 0.183334 79.0494 0.880001 77.6474 2.27333C76.2453 3.61778 75.5443 5.25556 75.5443 7.18667C75.5443 8.40889 75.778 9.52111 76.2453 10.5233C76.7127 11.5256 77.4014 12.2467 78.3115 12.6867C77.4014 13.3467 76.7127 14.2144 76.2453 15.29C75.778 16.3656 75.5443 17.5144 75.5443 18.7367C75.5443 20.6433 76.2453 22.2689 77.6474 23.6133C79.074 25.0311 80.722 25.74 82.5914 25.74H95.1358V23.32H82.5914C81.1155 23.32 79.9533 22.9044 79.1047 22.0733C78.2561 21.2422 77.8318 20.13 77.8318 18.7367ZM101.993 18.7367C101.993 17.5633 102.411 16.5 103.247 15.5467C104.083 14.5444 105.092 14.0433 106.272 14.0433H106.752H113.651V11.77H106.752H106.272C105.018 11.5256 103.991 10.9878 103.192 10.1567C102.392 9.32555 101.993 8.33556 101.993 7.18667C101.993 5.74445 102.417 4.60167 103.265 3.75833C104.114 2.915 105.276 2.49333 106.752 2.49333H119.297V0.183334H106.752C104.858 0.183334 103.21 0.880001 101.808 2.27333C100.406 3.61778 99.705 5.25556 99.705 7.18667C99.705 8.40889 99.9387 9.52111 100.406 10.5233C100.873 11.5256 101.562 12.2467 102.472 12.6867C101.562 13.3467 100.873 14.2144 100.406 15.29C99.9387 16.3656 99.705 17.5144 99.705 18.7367C99.705 20.6433 100.406 22.2689 101.808 23.6133C103.235 25.0311 104.883 25.74 106.752 25.74H119.297V23.32H106.752C105.276 23.32 104.114 22.9044 103.265 22.0733C102.417 21.2422 101.993 20.13 101.993 18.7367ZM123.939 25.7767H126.227V10.23C126.227 8.17667 127.014 6.34333 128.588 4.73C130.162 3.16556 131.983 2.38333 134.049 2.38333C136.115 2.38333 137.96 3.16556 139.583 4.73C141.157 6.34333 141.944 8.17667 141.944 10.23V25.7767H144.232V10.23C144.232 7.44334 143.236 5.06 141.243 3.08C139.251 1.1 136.853 0.110001 134.049 0.110001C131.294 0.110001 128.92 1.1 126.928 3.08C124.936 5.06 123.939 7.44334 123.939 10.23V25.7767Z" fill="#0DF5E3"/>
</svg>
