<svg width="22" height="24" viewBox="0 0 22 24" fill="none" xmlns="http://www.w3.org/2000/svg">
<path d="M18 16.7597C17.1133 16.7597 16.32 17.1097 15.7133 17.658L7.395 12.8163C7.45333 12.548 7.5 12.2797 7.5 11.9997C7.5 11.7197 7.45333 11.4513 7.395 11.183L15.62 6.38801C16.25 6.97134 17.0783 7.33301 18 7.33301C19.9367 7.33301 21.5 5.76967 21.5 3.83301C21.5 1.89634 19.9367 0.333008 18 0.333008C16.0633 0.333008 14.5 1.89634 14.5 3.83301C14.5 4.11301 14.5467 4.38134 14.605 4.64967L6.38 9.44468C5.75 8.86134 4.92167 8.49967 4 8.49967C2.06333 8.49967 0.5 10.063 0.5 11.9997C0.5 13.9363 2.06333 15.4997 4 15.4997C4.92167 15.4997 5.75 15.138 6.38 14.5547L14.6867 19.3963C14.6283 19.6413 14.5933 19.898 14.5933 20.1663C14.5933 22.0447 16.1217 23.5613 18 23.5613C19.8783 23.5613 21.4067 22.0447 21.4067 20.1663C21.4067 18.288 19.8783 16.7597 18 16.7597ZM18 2.66634C18.6417 2.66634 19.1667 3.19134 19.1667 3.83301C19.1667 4.47467 18.6417 4.99967 18 4.99967C17.3583 4.99967 16.8333 4.47467 16.8333 3.83301C16.8333 3.19134 17.3583 2.66634 18 2.66634ZM4 13.1663C3.35833 13.1663 2.83333 12.6413 2.83333 11.9997C2.83333 11.358 3.35833 10.833 4 10.833C4.64167 10.833 5.16667 11.358 5.16667 11.9997C5.16667 12.6413 4.64167 13.1663 4 13.1663ZM18 21.333C17.3583 21.333 16.8333 20.808 16.8333 20.1663C16.8333 19.5247 17.3583 18.9997 18 18.9997C18.6417 18.9997 19.1667 19.5247 19.1667 20.1663C19.1667 20.808 18.6417 21.333 18 21.333Z" fill="white"/>
</svg>
