<svg width="120" height="26" viewBox="0 0 120 26" fill="none" xmlns="http://www.w3.org/2000/svg">
<path d="M6.45672 2.82333H20.3663V0.0366658H6.45672C4.63654 0.0366658 3.11152 0.745556 1.88167 2.16333C0.627218 3.60556 0 5.35333 0 7.40666C0 9.26444 0.627218 10.8778 1.88167 12.2467C3.11152 13.64 4.63654 14.3367 6.45672 14.3367H10.1463H13.9096C15.0165 14.3367 16.0004 14.8011 16.8613 15.73C17.673 16.7078 18.0788 17.7711 18.0788 18.92C18.0788 20.2889 17.6791 21.4011 16.8797 22.2567C16.0803 23.1122 15.0903 23.54 13.9096 23.54H0V25.8133H13.9096C15.7544 25.8133 17.2917 25.1778 18.5216 23.9067C19.7514 22.6356 20.3663 20.9733 20.3663 18.92C20.3663 17.0622 19.7514 15.4489 18.5216 14.08C17.2671 12.7111 15.7298 12.0267 13.9096 12.0267H10.1463H6.45672C5.32525 12.0267 4.35367 11.5378 3.54197 10.56C2.70567 9.65556 2.28752 8.60444 2.28752 7.40666C2.28752 6.03778 2.68722 4.93167 3.48663 4.08833C4.28603 3.245 5.27606 2.82333 6.45672 2.82333ZM39.7306 0.146667H28.1454H25.8579V25.9233H28.1454V13.0167H39.7306C41.5999 13.0167 43.1496 12.4056 44.3794 11.1833C45.6093 9.96111 46.2242 8.43333 46.2242 6.6C46.2242 4.93778 45.6093 3.45889 44.3794 2.16333C43.0758 0.818889 41.5262 0.146667 39.7306 0.146667ZM39.7306 10.7433H28.1454V2.42H39.7306C40.862 2.42 41.8582 2.82333 42.7191 3.63C43.5308 4.48555 43.9367 5.47556 43.9367 6.6C43.9367 7.74889 43.5308 8.72667 42.7191 9.53333C41.8582 10.34 40.862 10.7433 39.7306 10.7433ZM60.3124 0C57.5575 0 55.2454 0.99 53.376 2.97C51.5312 4.92556 50.6089 7.30889 50.6089 10.12V25.8133H52.9333V14.3H67.7653V25.8133H70.0897V10.12C70.0897 7.30889 69.1673 4.92556 67.3225 2.97C65.404 0.99 63.0672 0 60.3124 0ZM67.7653 12.0267H52.9333V10.12C52.9333 8.01778 53.6466 6.19667 55.0732 4.65667C56.5244 3.09222 58.2708 2.31 60.3124 2.31C62.3539 2.31 64.1249 3.09222 65.6253 4.65667C67.052 6.19667 67.7653 8.01778 67.7653 10.12V12.0267ZM94.9145 25.8133V23.5033H88.3471C85.297 23.5033 82.7389 22.4767 80.6728 20.4233C78.6066 18.37 77.5736 15.8278 77.5736 12.7967C77.5736 10.01 78.6066 7.61444 80.6728 5.61C82.7389 3.60555 85.297 2.60333 88.3471 2.60333H94.9145V0.22H88.3471C84.6329 0.22 81.5214 1.44222 79.0125 3.88667C76.5036 6.30667 75.2492 9.27667 75.2492 12.7967C75.2492 16.5367 76.5036 19.6289 79.0125 22.0733C81.4722 24.5667 84.5837 25.8133 88.3471 25.8133H94.9145ZM101.993 18.7733C101.993 17.6 102.411 16.5367 103.247 15.5833C104.083 14.5811 105.092 14.08 106.272 14.08H106.752H113.651V11.8067H106.752H106.272C105.018 11.5622 103.991 11.0244 103.192 10.1933C102.392 9.36222 101.993 8.37222 101.993 7.22333C101.993 5.78111 102.417 4.63833 103.265 3.795C104.114 2.95167 105.276 2.53 106.752 2.53H119.297V0.22H106.752C104.858 0.22 103.21 0.916667 101.808 2.31C100.406 3.65444 99.705 5.29222 99.705 7.22333C99.705 8.44556 99.9387 9.55778 100.406 10.56C100.873 11.5622 101.562 12.2833 102.472 12.7233C101.562 13.3833 100.873 14.2511 100.406 15.3267C99.9387 16.4022 99.705 17.5511 99.705 18.7733C99.705 20.68 100.406 22.3056 101.808 23.65C103.235 25.0678 104.883 25.7767 106.752 25.7767H119.297V23.3567H106.752C105.276 23.3567 104.114 22.9411 103.265 22.11C102.417 21.2789 101.993 20.1667 101.993 18.7733Z" fill="#CF1FCF"/>
</svg>
